<mxfile host="app.diagrams.net" modified="2023-05-09T00:41:22.808Z" agent="Mozilla/5.0 (Windows NT 10.0; Win64; x64) AppleWebKit/537.36 (KHTML, like Gecko) Chrome/112.0.0.0 Safari/537.36" etag="Z1peKF1V_38P2DQNYn4T" version="21.2.9" type="device">
  <diagram name="PÃ¡gina-1" id="F_9YrTbA94NuAvx2utAO">
    <mxGraphModel dx="1114" dy="1785" grid="1" gridSize="10" guides="1" tooltips="1" connect="1" arrows="1" fold="1" page="1" pageScale="1" pageWidth="827" pageHeight="1169" math="0" shadow="0">
      <root>
        <mxCell id="0" />
        <mxCell id="1" parent="0" />
        <mxCell id="TfOdDXsAPotWowQvEdkh-4" style="edgeStyle=orthogonalEdgeStyle;rounded=0;orthogonalLoop=1;jettySize=auto;html=1;entryX=0.5;entryY=1;entryDx=0;entryDy=0;" edge="1" parent="1" source="TfOdDXsAPotWowQvEdkh-1" target="TfOdDXsAPotWowQvEdkh-2">
          <mxGeometry relative="1" as="geometry" />
        </mxCell>
        <mxCell id="TfOdDXsAPotWowQvEdkh-1" value="nosso sistema" style="rounded=0;whiteSpace=wrap;html=1;" vertex="1" parent="1">
          <mxGeometry x="354" y="-30" width="120" height="60" as="geometry" />
        </mxCell>
        <mxCell id="TfOdDXsAPotWowQvEdkh-2" value="login do google&amp;nbsp;" style="rounded=0;whiteSpace=wrap;html=1;" vertex="1" parent="1">
          <mxGeometry x="354" y="-140" width="120" height="60" as="geometry" />
        </mxCell>
      </root>
    </mxGraphModel>
  </diagram>
</mxfile>
